HIERARCHY
ROOT Hips
{
  OFFSET -125.086 92.215 135.881
  CHANNELS 6 Xposition Yposition Zposition Zrotation Xrotation Yrotation
  JOINT LeftUpLeg
  {
    OFFSET 8.64259 1.95398 -2.38835
    CHANNELS 3 Zrotation Xrotation Yrotation
    JOINT LeftLeg
    {
      OFFSET 43.7702 0 0
      CHANNELS 3 Zrotation Xrotation Yrotation
      JOINT LeftFoot
      {
        OFFSET 40.6238 0 0
        CHANNELS 3 Zrotation Xrotation Yrotation
        JOINT LeftToeBase
        {
          OFFSET 12.7242 0 0
          CHANNELS 3 Zrotation Xrotation Yrotation
          End Site
          {
            OFFSET 0 0 0
          }
        }
      }
    }
  }
  JOINT RightUpLeg
  {
    OFFSET -8.2249 1.95398 -2.59336
    CHANNELS 3 Zrotation Xrotation Yrotation
    JOINT RightLeg
    {
      OFFSET 43.5653 0 0
      CHANNELS 3 Zrotation Xrotation Yrotation
      JOINT RightFoot
      {
        OFFSET 40.6238 0 0
        CHANNELS 3 Zrotation Xrotation Yrotation
        JOINT RightToeBase
        {
          OFFSET 12.7242 0 0
          CHANNELS 3 Zrotation Xrotation Yrotation
          End Site
          {
            OFFSET 0 0 0
          }
        }
      }
    }
  }
  JOINT Spine
  {
    OFFSET 0.165834 0.87714 6.61349
    CHANNELS 3 Zrotation Xrotation Yrotation
    JOINT Spine1
    {
      OFFSET 7.38963 1.71661e-005 0
      CHANNELS 3 Zrotation Xrotation Yrotation
      JOINT Spine2
      {
        OFFSET 11.9445 1.14441e-005 0
        CHANNELS 3 Zrotation Xrotation Yrotation
        JOINT Spine3
        {
          OFFSET 14.7254 4.19617e-005 0
          CHANNELS 3 Zrotation Xrotation Yrotation
          JOINT Spine4
          {
            OFFSET 10.9679 0 0
            CHANNELS 3 Zrotation Xrotation Yrotation
            JOINT RightShoulder
            {
              OFFSET 2.46616 -1.6653 3.69651
              CHANNELS 3 Zrotation Xrotation Yrotation
              JOINT RightArm
              {
                OFFSET 13.0012 0 0
                CHANNELS 3 Zrotation Xrotation Yrotation
                JOINT RightForeArm
                {
                  OFFSET 28.7848 1.52588e-005 0
                  CHANNELS 3 Zrotation Xrotation Yrotation
                  JOINT RightHand
                  {
                    OFFSET 26.5688 1.52588e-005 0
                    CHANNELS 3 Zrotation Xrotation Yrotation
                    End Site
                    {
                      OFFSET 0 0 0
                    }
                  }
                }
              }
            }
            JOINT LeftShoulder
            {
              OFFSET 2.38034 -1.29275 -3.7523
              CHANNELS 3 Zrotation Xrotation Yrotation
              JOINT LeftArm
              {
                OFFSET 16.3182 6.10352e-005 0
                CHANNELS 3 Zrotation Xrotation Yrotation
                JOINT LeftForeArm
                {
                  OFFSET 27.0901 0 0
                  CHANNELS 3 Zrotation Xrotation Yrotation
                  JOINT LeftHand
                  {
                    OFFSET 24.5451 1.52588e-005 0
                    CHANNELS 3 Zrotation Xrotation Yrotation
                    End Site
                    {
                      OFFSET 0 0 0
                    }
                  }
                }
              }
            }
            JOINT Neck
            {
              OFFSET 5.0226 -0.0266342 0
              CHANNELS 3 Zrotation Xrotation Yrotation
              JOINT Head
              {
                OFFSET 6.69363 2.86102e-005 0
                CHANNELS 3 Zrotation Xrotation Yrotation
                End Site
                {
                  OFFSET 0 0 0
                }
              }
            }
          }
        }
      }
    }
  }
}
MOTION
Frames:	7
Frame Time:	0.0416667
-218.519 94.5882 195.446 94.8705 45.727 89.5266 -174.528 -0.235442 91.3682 -10.4007 11.1123 3.63722 59.792 4.85589 8.69853 38.5233 -0.944293 3.73838 176.4 3.73214 89.3512 -15.96 2.04967 -1.24722 61.5153 0.85633 19.211 31.099 0.022937 -4.93098 -0.199751 7.23563 -90.3722 12.4005 -0.573716 -0.677727 0.729496 -0.602979 -0.65182 -21.8047 -0.343505 -0.818805 -1.79204 -0.343523 -0.818811 108.929 -50.5731 -71.7029 32.1776 -1.05433 -11.2799 0.368705 -27.0826 -13.748 -19.9213 -1.57067 3.9665 -75.4404 -43.631 100.808 -46.3818 -4.89173 -17.8251 17.4432 59.3213 -18.6996 -5.90077 0.0289554 -8.24766 3.56683 0.119017 -1.94827 -18.5406 0.0715627 2.91206 
-218.56 94.577 195.486 94.245 45.8359 89.6781 -174.764 0.0746814 91.0561 -10.1078 11.4224 3.55311 59.4306 4.71109 8.87379 38.8208 -0.973384 4.23221 176.356 4.34985 89.0937 -16.2213 1.97157 -1.2751 61.4726 0.890235 18.9989 31.5826 -0.0897493 -4.72144 -0.227516 7.17884 -90.3701 12.514 -0.628185 -0.666601 0.843004 -0.6569 -0.638325 -21.6914 -0.398819 -0.824571 -1.67872 -0.398801 -0.824577 108.411 -50.3933 -72.4793 32.3831 -1.13029 -10.7507 -0.11675 -26.0888 -14.4694 -16.5193 -0.924322 1.36291 -74.9671 -44.4624 101.538 -45.5521 -4.95827 -18.1843 19.5838 62.3983 -20.8999 -6.29388 0.0353125 -8.78313 3.93503 0.0896817 -1.12254 -19.0416 -0.0665301 2.60417 
-218.591 94.5737 195.482 94.2567 45.8097 89.647 -174.839 0.101822 91.017 -10.1339 11.2191 3.58707 59.4187 4.70854 8.72457 39.0293 -0.982748 4.21127 176.315 4.39255 89.0544 -16.305 1.77744 -1.24775 61.571 0.820476 18.7649 31.3218 -0.041359 -4.67602 -0.218784 7.17458 -90.3775 12.5225 -0.614319 -0.682873 0.851487 -0.643789 -0.65518 -21.6828 -0.380706 -0.835925 -1.67012 -0.380705 -0.835932 108.32 -50.6652 -72.6535 32.2094 -0.620725 -10.4592 -0.615059 -26.1971 -14.9662 -16.2892 -0.935693 1.50409 -74.8453 -44.6704 101.724 -45.2088 -4.852 -18.0685 15.7739 54.623 -18.5211 -12.3228 0.0871736 -6.28078 3.72093 -0.148162 -1.19094 -18.4737 -0.315407 2.8821 
-218.604 94.5677 195.465 94.2937 45.9186 89.6435 -174.818 0.158044 91.0225 -10.2951 11.1858 3.57662 59.5587 4.78341 8.68497 38.9892 -0.979002 4.1361 176.268 4.32257 89.0291 -16.2212 1.94348 -1.20454 61.5216 0.868097 19.0114 31.3715 -0.0439571 -4.77138 -0.21016 7.15267 -90.3821 12.5663 -0.599415 -0.69358 0.895289 -0.62936 -0.666528 -21.6389 -0.363262 -0.841651 -1.62623 -0.363269 -0.841656 108.39 -50.5732 -72.5348 32.1459 -0.628375 -10.3402 -0.416128 -26.0793 -14.7165 -16.4899 -0.944162 1.4801 -74.866 -44.8109 101.682 -45.0372 -4.93612 -18.2282 15.683 55.4245 -18.1831 -12.3715 0.110948 -6.62098 3.1273 -0.361292 -1.15223 -18.0622 -0.520561 2.8155 
-218.562 94.5762 195.464 94.3821 45.9744 89.5545 -174.799 0.0621821 91.0385 -10.2812 11.3497 3.58408 59.5034 4.75437 8.68198 38.9426 -0.977296 4.18485 176.276 4.29977 89.0284 -16.3572 2.20851 -1.23213 61.5835 0.895146 19.2679 31.3623 -0.0359987 -4.85139 -0.204385 7.13868 -90.3696 12.5944 -0.582185 -0.670497 0.92342 -0.611128 -0.644232 -21.6108 -0.353782 -0.814465 -1.59816 -0.353772 -0.814466 108.398 -50.5363 -72.5181 32.2 -0.581318 -10.1153 -0.289557 -25.7304 -14.6286 -16.6115 -0.992697 1.77323 -74.9981 -44.7028 101.474 -45.2036 -5.20412 -18.2206 17.6639 59.8671 -19.2697 -9.25167 0.181504 -8.8933 2.97756 -0.47236 -1.03367 -18.259 -0.597474 2.35206 
-218.525 94.5779 195.441 94.3989 45.8651 89.5336 -174.726 -0.090963 91.0445 -10.0625 11.5468 3.52589 59.4084 4.76934 8.99806 38.8446 -0.97607 4.22084 176.318 4.31824 89.0643 -16.4412 1.71547 -1.26832 61.5919 0.80001 18.6248 31.7222 -0.114507 -4.75992 -0.18161 7.13212 -90.3712 12.6076 -0.537732 -0.678765 0.936592 -0.567066 -0.654452 -21.5975 -0.308882 -0.808991 -1.58485 -0.308879 -0.808988 108.529 -50.5477 -72.3158 32.0201 -0.492746 -10.0207 -0.443304 -25.9016 -14.8109 -16.0858 -0.974676 1.87624 -75.1057 -44.6892 101.301 -45.2592 -5.35516 -18.0694 17.3176 59.1629 -18.9488 -10.0088 0.197104 -8.78462 3.75574 -0.424341 -0.523452 -19.5129 -0.533166 1.45873 
-218.509 94.5711 195.409 94.3603 45.7298 89.6332 -174.731 -0.0720286 91.0874 -10.1163 11.2531 3.56044 59.5845 4.82549 8.80402 38.6485 -0.975357 4.3293 176.337 4.26872 89.1248 -16.2877 1.56828 -1.24645 61.4273 0.80344 18.5053 31.9725 -0.182829 -4.50168 -0.170316 7.12304 -90.369 12.6258 -0.51435 -0.677081 0.954794 -0.54365 -0.653793 -21.5793 -0.287083 -0.800352 -1.56662 -0.287091 -0.800358 108.446 -50.4713 -72.4358 32.1053 -0.280702 -9.94935 -0.671525 -26.3841 -14.8052 -16.2158 -0.964157 1.74261 -75.1017 -44.6148 101.311 -45.2988 -5.4256 -17.9465 15.5836 55.9157 -17.577 -12.1827 0.13722 -6.98798 3.63132 -0.364932 -0.680832 -19.5592 -0.450721 1.47876 
